<svg width="20" height="20" viewBox="0 0 20 20" fill="none" xmlns="http://www.w3.org/2000/svg">
<rect width="20" height="20" rx="10" fill="#8195AE"/>
<g clip-path="url(#clip0_29202_169)">
<path fill-rule="evenodd" clip-rule="evenodd" d="M9.82748 6.7819C8.7445 5.5158 6.93855 5.17522 5.58165 6.33459C4.22474 7.49396 4.03371 9.43236 5.09929 10.8036C5.98525 11.9436 8.66648 14.3481 9.54524 15.1263C9.64356 15.2134 9.69271 15.2569 9.75005 15.274C9.8001 15.2889 9.85486 15.2889 9.9049 15.274C9.96224 15.2569 10.0114 15.2134 10.1097 15.1263C10.9885 14.3481 13.6697 11.9436 14.5557 10.8036C15.6212 9.43236 15.4535 7.48176 14.0733 6.33459C12.6931 5.18742 10.9105 5.5158 9.82748 6.7819Z" stroke="white" stroke-width="1.4" stroke-linecap="round" stroke-linejoin="round"/>
</g>
<defs>
<clipPath id="clip0_29202_169">
<rect width="13" height="13" fill="white" transform="translate(3.33118 4)"/>
</clipPath>
</defs>
</svg>
