<svg width="21" height="20" viewBox="0 0 21 20" fill="none" xmlns="http://www.w3.org/2000/svg">
<rect x="0.668854" width="20" height="20" rx="10" fill="#389EC5"/>
<path d="M15.6766 6.16926V13.0776C15.6766 14.3688 14.6397 15.4155 13.3608 15.4155C12.0818 15.4155 11.045 14.3688 11.045 13.0776C11.045 11.7864 12.0818 10.7397 13.3608 10.7397C13.7826 10.7397 14.1781 10.8535 14.5187 11.0524V8.50724L8.72921 9.48138V13.6621C8.72921 13.6967 8.72622 13.7306 8.72051 13.7635C8.72626 13.8264 8.72921 13.89 8.72921 13.9543C8.72921 15.0841 7.822 16 6.70289 16C5.58379 16 4.67657 15.0841 4.67657 13.9543C4.67657 12.8245 5.58379 11.9086 6.70289 11.9086C7.01367 11.9086 7.3081 11.9792 7.57131 12.1055V7.14339C7.57131 6.57196 7.98052 6.08427 8.53885 5.99033L14.3283 5.01619C15.0341 4.89744 15.6766 5.44691 15.6766 6.16926ZM6.70289 13.0776C6.22327 13.0776 5.83447 13.4701 5.83447 13.9543C5.83447 14.4385 6.22327 14.831 6.70289 14.831C7.18251 14.831 7.57131 14.4385 7.57131 13.9543C7.57131 13.4701 7.18251 13.0776 6.70289 13.0776ZM13.3608 11.9086C12.7213 11.9086 12.2029 12.432 12.2029 13.0776C12.2029 13.7232 12.7213 14.2466 13.3608 14.2466C14.0003 14.2466 14.5187 13.7232 14.5187 13.0776C14.5187 12.432 14.0003 11.9086 13.3608 11.9086ZM14.5187 6.16926L8.72921 7.14339V8.29629L14.5187 7.32215V6.16926Z" fill="white"/>
</svg>
